# xmcd
#
# Track frame offsets: 
#        150
#        13238
#        30120
#        45120
#        65845
#
# Disc length: 1101 seconds
#
# Revision: 2
# Processed by: cddbd v1.5.2PL0 Copyright (c) Steve Scherf et al.
# Submitted via: ExactAudioCopy v1.1
#
DISCID=32044b05
DTITLE=Dawn Of Winter - Celebrate The Agony
DYEAR=1993
DGENRE=Doom Metal
TTITLE0=Forsaken And Forlorn
TTITLE1=The Black Angel
TTITLE2=Dance In Despair
TTITLE3=Path Of The Worm
TTITLE4=Long Forgotten Realms
EXTD=
EXTT0=
EXTT1=
EXTT2=
EXTT3=
EXTT4=
PLAYORDER=
